<svg xmlns="http://www.w3.org/2000/svg" width="104" height="56" fill="none" viewBox="0 0 104 56"><path fill="#8e8f99" d="M36.81 49.223q.024 0 .046.01a.1.1 0 0 1 .04.023l.22.208a1.8 1.8 0 0 1-.62.394c-.28.1-.58.148-.881.141a2.4 2.4 0 0 1-.829-.132 1.8 1.8 0 0 1-.623-.372 1.7 1.7 0 0 1-.403-.576 1.9 1.9 0 0 1-.141-.738 1.8 1.8 0 0 1 .152-.741c.096-.214.242-.41.428-.575a2 2 0 0 1 .662-.376 2.6 2.6 0 0 1 .853-.132c.27-.005.54.036.792.12.219.082.42.194.594.333l-.185.222a.2.2 0 0 1-.047.04.13.13 0 0 1-.075.017.2.2 0 0 1-.08-.024l-.1-.059-.137-.075a1.6 1.6 0 0 0-.436-.133 2 2 0 0 0-.329-.023 1.8 1.8 0 0 0-.613.099 1.4 1.4 0 0 0-.48.278c-.138.129-.244.28-.312.444a1.5 1.5 0 0 0-.113.585 1.5 1.5 0 0 0 .113.594 1.26 1.26 0 0 0 .765.715c.18.064.373.096.568.094q.17.002.337-.019a1.35 1.35 0 0 0 .729-.304.18.18 0 0 1 .105-.038m6.376-1.043c.004.25-.047.5-.149.734a1.6 1.6 0 0 1-.416.57c-.184.162-.406.29-.652.373a2.73 2.73 0 0 1-1.678 0 1.9 1.9 0 0 1-.65-.375 1.7 1.7 0 0 1-.419-.575 1.89 1.89 0 0 1 0-1.47c.094-.214.237-.41.42-.578a1.9 1.9 0 0 1 .649-.36c.54-.18 1.138-.18 1.678 0 .245.085.467.212.651.375a1.69 1.69 0 0 1 .566 1.306m-.58 0c.005-.2-.03-.4-.104-.59a1.21 1.21 0 0 0-.762-.719 1.97 1.97 0 0 0-1.22 0 1.3 1.3 0 0 0-.467.279 1.2 1.2 0 0 0-.298.44 1.7 1.7 0 0 0 0 1.18c.062.163.164.313.298.441.13.12.29.215.467.276.393.126.826.126 1.22 0 .177-.061.337-.156.466-.276.133-.128.233-.279.296-.441a1.5 1.5 0 0 0 .104-.59m4.93.619.058.132q.033-.07.064-.132a1 1 0 0 1 .072-.13l1.41-2.19q.04-.058.08-.07a.4.4 0 0 1 .116-.011h.417v3.563h-.494v-2.73a1 1 0 0 1 0-.123l-1.419 2.221a.2.2 0 0 1-.083.081.25.25 0 0 1-.121.03h-.08a.25.25 0 0 1-.122-.03.2.2 0 0 1-.082-.08l-1.46-2.236v2.86h-.478v-3.556h.417a.4.4 0 0 1 .115.012.16.16 0 0 1 .078.068l1.44 2.193q.044.061.072.128m5.309-.177v1.334h-.552v-3.558h1.23c.233-.004.465.022.688.078.179.043.344.118.486.221a.9.9 0 0 1 .276.35q.098.22.094.455a.99.99 0 0 1-.4.811 1.4 1.4 0 0 1-.49.236 2.4 2.4 0 0 1-.664.082zm0-.382h.668q.22.002.428-.055a1 1 0 0 0 .309-.153.67.67 0 0 0 .254-.535.6.6 0 0 0-.056-.29.7.7 0 0 0-.193-.243 1.2 1.2 0 0 0-.742-.191h-.668zm7.419 1.721h-.436a.2.2 0 0 1-.121-.033.2.2 0 0 1-.072-.082l-.375-.861h-1.886l-.389.86a.2.2 0 0 1-.069.08.2.2 0 0 1-.124.036h-.436l1.656-3.563h.574zm-2.732-1.323h1.557l-.657-1.45a2.3 2.3 0 0 1-.125-.335l-.063.186q-.03.086-.06.15zm5.118-2.224a.23.23 0 0 1 .082.064l2.416 2.686v-2.766h.494v3.563h-.276a.3.3 0 0 1-.114-.02.3.3 0 0 1-.088-.067l-2.412-2.684a1 1 0 0 1 0 .123v2.648h-.494v-3.563h.292a.3.3 0 0 1 .1.016m7.06 2.13v1.415h-.552v-1.415l-1.526-2.146h.494a.2.2 0 0 1 .119.03.3.3 0 0 1 .074.08l.955 1.385a1.4 1.4 0 0 1 .168.316l.072-.153q.041-.084.094-.163l.941-1.394a.4.4 0 0 1 .072-.076.2.2 0 0 1 .119-.035h.5zm-22.447-8.127q.36.038.729.066c3.725-1.423 6.875-3.753 9.059-6.699s3.302-6.374 3.216-9.86l-4.104-3.507c.834 3.711.444 7.547-1.128 11.08-1.572 3.531-4.263 6.62-7.772 8.92"/><path fill="#8e8f99" d="m45.797 40.254.11.019c3.75-2.292 6.61-5.492 8.208-9.187 1.599-3.695 1.863-7.714.758-11.539l-5.846-4.995c2.365 4.106 3.317 8.701 2.745 13.25-.572 4.55-2.644 8.868-5.974 12.452Zm19.828-12.212c-.993 3.83-3.406 7.284-6.879 9.85a22 22 0 0 1-3.268 2.004c2.828-.71 5.428-1.966 7.598-3.67 2.17-1.705 3.854-3.812 4.92-6.16z"/><path fill="#8e8f99" d="m64.695 27.478-3.376-2.884c-.065 3.288-1.159 6.502-3.169 9.307S53.287 39 49.888 40.544h.017q1.137 0 2.266-.115c3.176-1.108 5.983-2.87 8.168-5.13s3.682-4.947 4.356-7.82ZM46.286 12.446 42.26 9c-3.6 1.189-6.697 3.278-8.884 5.995s-3.364 5.936-3.375 9.234c.014 3.643 1.449 7.18 4.08 10.048 2.63 2.868 6.305 4.905 10.442 5.789 3.694-3.846 5.857-8.597 6.174-13.564s-1.228-9.89-4.41-14.056ZM74 26.948c-.015-4.323-2.031-8.466-5.61-11.523-3.577-3.057-8.426-4.78-13.486-4.793a21.8 21.8 0 0 0-6.838 1.087l24.659 21.068A14.1 14.1 0 0 0 74 26.947Z"/></svg>