<svg xmlns="http://www.w3.org/2000/svg" width="104" height="56" fill="none" viewBox="0 0 104 56"><path fill="#8e8f99" d="M53.53 27.443a2.95 2.95 0 0 1-.607-1.992v-2.888q0-1.328.603-2.018t2.07-.688q1.38 0 1.958.588c.42.5.625 1.111.578 1.727v.68h-1.644v-.688q.009-.338-.048-.673a.65.65 0 0 0-.234-.4.95.95 0 0 0-.596-.155 1 1 0 0 0-.627.164.77.77 0 0 0-.272.44 3.3 3.3 0 0 0-.065.715v3.505a1.8 1.8 0 0 0 .211.984.8.8 0 0 0 .328.239c.133.051.28.07.425.055.21.015.42-.042.582-.159a.7.7 0 0 0 .245-.426 4 4 0 0 0 .051-.702v-.711h1.645v.65a2.64 2.64 0 0 1-.57 1.815c-.377.429-1.02.643-1.967.643-.946 0-1.661-.229-2.067-.705Zm6.846.03q-.623-.673-.623-1.972v-3.038q0-1.287.623-1.948.624-.66 2.084-.658 1.45 0 2.073.658.625.661.627 1.948v3.038q0 1.288-.633 1.969-.633.678-2.067.678c-.957 0-1.665-.229-2.084-.675m2.85-.729c.149-.282.217-.59.197-.899v-3.72a1.65 1.65 0 0 0-.194-.88.8.8 0 0 0-.335-.243.9.9 0 0 0-.434-.052.9.9 0 0 0-.435.053.8.8 0 0 0-.338.241c-.15.275-.218.578-.197.881v3.738c-.021.309.047.617.197.899q.146.142.347.223a1.16 1.16 0 0 0 .845 0 1.1 1.1 0 0 0 .347-.223zm3.912-6.798h1.77l1.332 5.605 1.361-5.605h1.723l.174 8.09h-1.274l-.136-5.622-1.314 5.622h-1.021l-1.362-5.643-.126 5.643h-1.287zm8.345 0h2.758q2.382 0 2.383 2.297 0 2.2-2.51 2.198h-.939v3.596h-1.702zm2.356 3.458c.168.018.339.005.5-.04q.245-.066.436-.216a1.3 1.3 0 0 0 .245-.913 2.5 2.5 0 0 0-.081-.735.6.6 0 0 0-.126-.222.7.7 0 0 0-.215-.163 1.8 1.8 0 0 0-.76-.129h-.66v2.418h.66Zm5.24-3.458h1.828l1.876 8.09h-1.587l-.37-1.865h-1.631l-.382 1.866h-1.61zm1.563 5.288-.637-3.396-.637 3.396h1.273Zm3.656-5.288h1.192l2.28 4.615v-4.615h1.414v8.09H92.05l-2.295-4.817v4.817h-1.46zm8.195 5.006-1.896-4.995h1.597l1.157 3.208 1.086-3.208H100l-1.873 4.995v3.084h-1.634zm-40.335 6.622v.423h-1.39v3.287h-.581v-3.287H52.79v-.423h3.367Zm4.354 3.71h-.45a.2.2 0 0 1-.125-.035.2.2 0 0 1-.075-.085l-.402-.881h-1.927l-.402.881a.24.24 0 0 1-.06.1.2.2 0 0 1-.127.035h-.45l1.703-3.71h.592zm-2.819-1.377H59.3l-.68-1.51a3 3 0 0 1-.127-.35q-.035.107-.064.197l-.062.156zm5.754 1.013q.16.008.32 0a2 2 0 0 0 .273-.044 2 2 0 0 0 .245-.067q.112-.042.228-.092v-.834h-.681a.1.1 0 0 1-.05-.006.1.1 0 0 1-.042-.023.1.1 0 0 1-.026-.03.1.1 0 0 1-.008-.038v-.285h1.321v1.422a2.6 2.6 0 0 1-.718.303 3 3 0 0 1-.426.076 5 5 0 0 1-.497.024 2.6 2.6 0 0 1-.858-.139 2.1 2.1 0 0 1-.681-.387 1.8 1.8 0 0 1-.44-.588 1.85 1.85 0 0 1-.156-.77 1.9 1.9 0 0 1 .153-.775c.098-.22.248-.42.44-.588a2.1 2.1 0 0 1 .68-.385c.292-.095.602-.141.913-.138q.239 0 .473.032.209.03.405.094.18.059.34.147.157.087.297.194l-.163.23a.14.14 0 0 1-.056.05.2.2 0 0 1-.077.02.2.2 0 0 1-.106-.03 2 2 0 0 1-.166-.088 1.5 1.5 0 0 0-.229-.1 2 2 0 0 0-.313-.082 2.6 2.6 0 0 0-.432-.032 2 2 0 0 0-.657.103 1.4 1.4 0 0 0-.5.294c-.142.133-.25.29-.318.46a1.73 1.73 0 0 0 0 1.238c.075.174.191.333.341.467.14.127.31.227.497.294.217.064.446.089.674.073m5.427-.059h1.86v.423h-2.428v-3.71h.582zm3.793.423h-.582v-3.71h.582zm2.165-3.693a.3.3 0 0 1 .09.068l2.488 2.797a1 1 0 0 1 0-.132v-2.765h.507v3.726h-.293a.3.3 0 0 1-.126-.021.3.3 0 0 1-.092-.07l-2.485-2.795v2.886h-.487v-3.711h.303q.05 0 .096.017Zm7.372-.017v.408H80.14v1.225h1.671v.394H80.14v1.266h2.063v.408H79.54v-3.701zM21.195 8.659l25.852 6.334v22.195l-25.852-6.33zm-1.658-1.892v25.168l29.165 7.148V13.918z"/><path fill="#8e8f99" d="M35.168 50.767 6 43.613V18.447l29.168 7.15z"/><path fill="#8e8f99" d="m20.02 8.374 25.515 6.254-10.85 9.366-25.519-6.258zm-.483-1.607L6 18.447l29.168 7.151 13.534-11.68zM36.81 49.35l11.892-10.264-11.893-2.917v13.182Z"/></svg>