<svg xmlns="http://www.w3.org/2000/svg" width="104" height="56" fill="none" viewBox="0 0 104 56"><path fill="#8e8f99" fill-rule="evenodd" d="m38 7 7.008 6.676L32 13.67v32.39h34V33.676l7 6.669V7zm27.692 25.892-19.87-18.93h19.87zm-6.169 8.43H37.38V19.538h1.565v20.31h20.578v1.476Zm-17.727 10.74-.825-1.698h-.681l1.196 2.246v1.309h.617V52.61l1.197-2.246h-.679zm3.042-1.698h.146l1.343 3.555h-.644l-.288-.832h-1.376l-.287.832h-.642l1.338-3.555zm-.652 2.237h1.041l-.52-1.508zm4.296-.59-.077-.099a1.8 1.8 0 0 1-.213-.349.9.9 0 0 1-.075-.352q0-.277.114-.478a.77.77 0 0 1 .325-.308q.21-.11.49-.11a.94.94 0 0 1 .467.11.766.766 0 0 1 .35.984.9.9 0 0 1-.17.254 1.7 1.7 0 0 1-.248.218l-.247.18.704.83a1.4 1.4 0 0 0 .153-.664h.508q0 .26-.051.49a1.5 1.5 0 0 1-.26.587l.52.615h-.68l-.207-.243a1.4 1.4 0 0 1-.364.2 1.6 1.6 0 0 1-.552.092q-.354 0-.613-.13a.97.97 0 0 1-.4-.356 1 1 0 0 1-.14-.52.8.8 0 0 1 .09-.38q.091-.166.247-.309.144-.13.33-.261Zm.292.358-.074.053a1 1 0 0 0-.193.203.59.59 0 0 0-.034.6.5.5 0 0 0 .198.203.65.65 0 0 0 .32.074.9.9 0 0 0 .393-.09 1 1 0 0 0 .18-.113zm.14-.65.218-.146a.8.8 0 0 0 .22-.2.44.44 0 0 0 .066-.25.354.354 0 0 0-.374-.342.36.36 0 0 0-.339.21.5.5 0 0 0 .015.435q.055.115.154.242zm6.22 1.043h-.611a1.1 1.1 0 0 1-.112.393.55.55 0 0 1-.247.242.9.9 0 0 1-.422.083.75.75 0 0 1-.369-.086.7.7 0 0 1-.254-.242 1.2 1.2 0 0 1-.146-.373 2.4 2.4 0 0 1-.047-.488v-.3q0-.284.051-.504a1.1 1.1 0 0 1 .16-.373.7.7 0 0 1 .26-.23.8.8 0 0 1 .367-.078q.255 0 .415.088.158.085.239.25.083.163.107.392h.61a1.5 1.5 0 0 0-.2-.632 1.13 1.13 0 0 0-.454-.432 1.5 1.5 0 0 0-.717-.157q-.334 0-.603.118-.267.116-.457.34a1.5 1.5 0 0 0-.293.529q-.1.31-.1.693v.296q0 .383.098.693.1.31.288.53.188.217.451.337.264.117.594.117.43 0 .73-.156.3-.157.466-.428.166-.274.195-.622Zm3.39-.523v-.195q0-.403-.107-.72a1.6 1.6 0 0 0-.3-.545 1.3 1.3 0 0 0-.467-.344q-.27-.12-.6-.12-.328 0-.598.12-.27.117-.467.344-.195.225-.302.545a2.2 2.2 0 0 0-.108.72v.195q0 .403.108.723a1.6 1.6 0 0 0 .307.544q.198.225.466.345.271.117.599.117.33 0 .6-.117.271-.12.464-.345.195-.224.3-.544a2.3 2.3 0 0 0 .105-.723m-.612-.2v.2q0 .299-.059.528a1.2 1.2 0 0 1-.166.388.7.7 0 0 1-.268.237.8.8 0 0 1-.364.078.8.8 0 0 1-.362-.078.8.8 0 0 1-.273-.237 1.2 1.2 0 0 1-.171-.388 2.1 2.1 0 0 1-.059-.528v-.2q0-.297.059-.525.06-.229.168-.383a.7.7 0 0 1 .271-.234.8.8 0 0 1 .362-.081q.202 0 .364.08.16.078.27.235.113.153.169.383.06.228.059.525" clip-rule="evenodd"/></svg>