<svg xmlns="http://www.w3.org/2000/svg" width="104" height="56" fill="none" viewBox="0 0 104 56"><g class="Logo"><g fill="#8e8f99" class="group"><path d="M24.078 21.518h-.003c-2.385 0-4.32 1.744-4.32 3.894v.003c0 2.15 1.935 3.894 4.32 3.894h.003c2.386 0 4.32-1.743 4.32-3.894v-.003c0-2.15-1.934-3.894-4.32-3.894m31.883-1.245c-.006-2.988-1.325-5.85-3.668-7.964C49.95 10.197 46.775 9.007 43.46 9c-3.314.005-6.491 1.195-8.835 3.308s-3.664 4.977-3.67 7.965v16.474s25.003-2.51 25.005-16.471v-.003ZM11 42.154c.006 2.079.924 4.071 2.554 5.541s3.84 2.299 6.145 2.305c2.305-.006 4.514-.834 6.144-2.304s2.548-3.46 2.555-5.54V30.695S11 32.442 11 42.154m8.699 2.054c-.45 0-.891-.12-1.266-.346a2.1 2.1 0 0 1-.839-.922 1.87 1.87 0 0 1-.13-1.186 2 2 0 0 1 .624-1.052 2.37 2.37 0 0 1 1.167-.562c.442-.08.9-.039 1.316.117.416.155.772.419 1.022.756.25.338.384.735.384 1.141.001.27-.057.539-.171.789s-.282.477-.493.669a2.3 2.3 0 0 1-.74.447 2.5 2.5 0 0 1-.874.157z" class="Vector"/><path d="M35.609 40.515v4.266h-.879v-4.266zm1.7 1.822v.686h-1.94v-.686zm.204-1.822v.688H35.37v-.688zm4.014 2.033v.202q0 .488-.132.873a1.9 1.9 0 0 1-.372.66q-.24.27-.574.413a1.8 1.8 0 0 1-.736.143q-.4 0-.735-.143a1.65 1.65 0 0 1-.574-.413 1.9 1.9 0 0 1-.378-.66 2.7 2.7 0 0 1-.132-.873v-.202q0-.489.132-.873a1.9 1.9 0 0 1 .372-.659q.243-.273.574-.416a1.8 1.8 0 0 1 .736-.144q.404 0 .735.144.334.144.574.416.243.272.375.66.135.383.135.872m-.888.202v-.208q0-.339-.061-.597a1.3 1.3 0 0 0-.182-.434.8.8 0 0 0-.293-.264.84.84 0 0 0-.395-.09q-.223 0-.396.09a.8.8 0 0 0-.29.264 1.3 1.3 0 0 0-.179.434 2.6 2.6 0 0 0-.061.597v.208q0 .337.061.598.062.258.182.437.12.176.293.266t.395.091q.223 0 .396-.09a.8.8 0 0 0 .29-.267q.117-.18.179-.437a2.6 2.6 0 0 0 .061-.598m3.741.914a.6.6 0 0 0-.035-.205.4.4 0 0 0-.123-.17 1 1 0 0 0-.255-.155 4 4 0 0 0-.425-.158 5 5 0 0 1-.55-.211 2.3 2.3 0 0 1-.457-.272 1.2 1.2 0 0 1-.31-.367 1 1 0 0 1-.112-.483 1 1 0 0 1 .117-.483q.117-.22.328-.375.21-.159.498-.244a2.3 2.3 0 0 1 .636-.085q.471 0 .823.17.351.17.545.466t.196.677h-.873a.66.66 0 0 0-.079-.328.54.54 0 0 0-.234-.226.84.84 0 0 0-.393-.082.9.9 0 0 0-.38.07.5.5 0 0 0-.23.185.45.45 0 0 0-.075.258q0 .108.052.196a.6.6 0 0 0 .165.164q.108.076.266.144t.366.132q.35.105.613.237.266.131.445.296.18.164.27.372t.09.472a1.02 1.02 0 0 1-.422.87q-.205.151-.489.231a2.4 2.4 0 0 1-.636.08q-.316 0-.624-.083a1.9 1.9 0 0 1-.56-.255 1.3 1.3 0 0 1-.398-.433 1.24 1.24 0 0 1-.149-.624h.882q0 .2.061.337a.56.56 0 0 0 .173.222.7.7 0 0 0 .27.123q.157.038.345.038a.9.9 0 0 0 .375-.064.46.46 0 0 0 .293-.437m3.384-3.149v4.266h-.876v-4.266zm1.313 0v.688h-3.48v-.688zm3.363 3.58v.686h-2.27v-.686zm-1.983-3.58v4.266h-.88v-4.266zm1.687 1.737v.668h-1.975v-.668zm.293-1.737v.688h-2.268v-.688zm.516 0h1.59q.49 0 .841.146.355.147.545.434t.19.706q0 .343-.117.589a1.1 1.1 0 0 1-.325.407 1.7 1.7 0 0 1-.489.258l-.278.147h-1.383l-.006-.686h1.028a.8.8 0 0 0 .384-.082.54.54 0 0 0 .229-.229.7.7 0 0 0 .079-.34.8.8 0 0 0-.076-.354.5.5 0 0 0-.232-.228.86.86 0 0 0-.39-.08h-.712v3.578h-.878zm2.384 4.266-.972-1.902.928-.006.985 1.867v.04h-.94Zm4.615-1.52h-1.087v-.686h1.087a.9.9 0 0 0 .41-.082.53.53 0 0 0 .231-.235.86.86 0 0 0 0-.691.6.6 0 0 0-.231-.264.76.76 0 0 0-.41-.1h-.783v3.578h-.878v-4.266h1.66q.501 0 .86.182.36.178.55.495.19.316.19.723 0 .414-.19.715-.19.302-.55.466-.359.165-.86.164Zm5.068.834v.686h-2.27v-.686zm-1.983-3.58v4.266h-.88v-4.266zm1.687 1.737v.668H62.75v-.668zm.293-1.737v.688H62.75v-.688zm2.482 0v4.266h-.876v-4.266zm1.312 0v.688h-3.48v-.688zm3.363 3.58v.686h-2.27v-.686zm-1.983-3.58v4.266h-.879v-4.266zm1.687 1.737v.668h-1.974v-.668zm.293-1.737v.688h-2.267v-.688zm.516 0h1.59a2.2 2.2 0 0 1 .842.146q.354.147.545.434.19.287.19.706 0 .343-.117.589a1.1 1.1 0 0 1-.325.407 1.7 1.7 0 0 1-.49.258l-.278.147h-1.383l-.006-.686h1.029a.8.8 0 0 0 .383-.082.54.54 0 0 0 .229-.229.7.7 0 0 0 .08-.34.8.8 0 0 0-.077-.354.5.5 0 0 0-.231-.228.86.86 0 0 0-.39-.08h-.712v3.578h-.879zm2.385 4.266-.973-1.902.929-.006.984 1.867v.04h-.94Zm3.68-1.117a.6.6 0 0 0-.036-.205.4.4 0 0 0-.123-.17 1 1 0 0 0-.255-.155 4 4 0 0 0-.424-.158 5 5 0 0 1-.551-.211 2.3 2.3 0 0 1-.457-.272 1.2 1.2 0 0 1-.31-.367 1 1 0 0 1-.112-.483 1 1 0 0 1 .117-.483q.118-.22.328-.375.21-.159.498-.244a2.3 2.3 0 0 1 .636-.085q.471 0 .823.17t.545.466q.196.296.196.677h-.873a.66.66 0 0 0-.079-.328.54.54 0 0 0-.234-.226.84.84 0 0 0-.393-.082.9.9 0 0 0-.38.07.5.5 0 0 0-.229.185.45.45 0 0 0-.076.258q0 .108.052.196a.6.6 0 0 0 .165.164q.108.076.266.144t.366.132q.35.105.613.237.266.131.445.296.18.164.27.372t.09.472a1.02 1.02 0 0 1-.422.87q-.205.151-.489.231t-.635.08q-.317 0-.624-.083a1.9 1.9 0 0 1-.56-.255 1.3 1.3 0 0 1-.399-.433 1.24 1.24 0 0 1-.149-.624h.882q0 .2.061.337a.56.56 0 0 0 .173.222.7.7 0 0 0 .27.123q.157.038.346.038a.9.9 0 0 0 .374-.064.46.46 0 0 0 .293-.437Z" class="FOSTER PETERS"/></g></g></svg>