<svg xmlns="http://www.w3.org/2000/svg" xmlns:xlink="http://www.w3.org/1999/xlink">
    <defs>
        <symbol id="icon-Logo1" viewBox="0 0 59 32">
            <path
                d="M21.714 4l4.005 3.815-7.433-0.003v18.509h19.429v-7.077l4 3.811v-19.054zM37.538 18.795l-11.354-10.817h11.354zM34.013 23.613h-12.653v-12.448h0.894v11.606h11.759v0.843zM23.883 29.75l-0.471-0.97h-0.389l0.683 1.283v0.748h0.353v-0.748l0.684-1.283h-0.388zM25.622 28.779h0.083l0.767 2.031h-0.368l-0.165-0.475h-0.786l-0.164 0.475h-0.367l0.765-2.031zM25.249 30.058h0.595l-0.297-0.862zM27.704 29.721l-0.044-0.057c-0.045-0.058-0.086-0.123-0.119-0.193l-0.003-0.006c-0.026-0.059-0.042-0.128-0.043-0.201v-0q0-0.158 0.065-0.273c0.044-0.076 0.107-0.136 0.183-0.175l0.003-0.001q0.12-0.063 0.28-0.063c0.004-0 0.009-0 0.014-0 0.092 0 0.179 0.023 0.255 0.064l-0.003-0.001c0.141 0.075 0.236 0.22 0.236 0.388 0 0.063-0.013 0.123-0.037 0.177l0.001-0.003c-0.025 0.056-0.058 0.104-0.097 0.145l0-0c-0.043 0.045-0.089 0.086-0.139 0.123l-0.003 0.002-0.141 0.103 0.402 0.474c0.055-0.106 0.088-0.231 0.088-0.364 0-0.005-0-0.011-0-0.016v0.001h0.29q0 0.149-0.029 0.28c-0.027 0.128-0.078 0.241-0.15 0.338l0.002-0.002 0.297 0.351h-0.389l-0.118-0.139c-0.060 0.046-0.128 0.085-0.203 0.112l-0.006 0.002c-0.091 0.033-0.196 0.053-0.306 0.053-0.003 0-0.007-0-0.010-0h0.001q-0.202 0-0.35-0.074c-0.095-0.046-0.173-0.116-0.227-0.201l-0.001-0.002c-0.050-0.083-0.080-0.184-0.080-0.292 0-0.002 0-0.004 0-0.006v0c-0-0.002-0-0.004-0-0.006 0-0.077 0.019-0.15 0.053-0.213l-0.001 0.003q0.052-0.095 0.141-0.177 0.082-0.074 0.189-0.149zM27.871 29.925l-0.042 0.030c-0.042 0.034-0.078 0.072-0.109 0.114l-0.001 0.002c-0.036 0.053-0.057 0.118-0.057 0.188 0 0.057 0.014 0.11 0.039 0.157l-0.001-0.002c0.026 0.049 0.065 0.089 0.112 0.115l0.001 0.001c0.050 0.027 0.109 0.042 0.172 0.042 0.004 0 0.007-0 0.011-0h-0.001c0 0 0 0 0 0 0.082 0 0.159-0.019 0.227-0.053l-0.003 0.001c0.039-0.019 0.073-0.041 0.104-0.065l-0.001 0.001zM27.951 29.554l0.125-0.083c0.049-0.031 0.091-0.069 0.125-0.113l0.001-0.001c0.024-0.038 0.038-0.084 0.038-0.133 0-0.004-0-0.007-0-0.011l0 0c-0.004-0.109-0.093-0.196-0.202-0.196-0.004 0-0.008 0-0.012 0l0.001-0c-0.002-0-0.004-0-0.007-0-0.083 0-0.154 0.049-0.187 0.119l-0.001 0.001c-0.015 0.034-0.024 0.074-0.024 0.115 0 0.049 0.012 0.095 0.034 0.135l-0.001-0.002q0.031 0.066 0.088 0.138zM31.505 30.15h-0.349c-0.008 0.083-0.031 0.159-0.066 0.228l0.002-0.004c-0.032 0.060-0.080 0.108-0.139 0.137l-0.002 0.001c-0.064 0.030-0.138 0.048-0.217 0.048-0.009 0-0.017-0-0.025-0.001l0.001 0c-0.003 0-0.007 0-0.011 0-0.073 0-0.142-0.018-0.202-0.050l0.002 0.001c-0.060-0.034-0.109-0.081-0.144-0.137l-0.001-0.002c-0.037-0.061-0.066-0.133-0.083-0.209l-0.001-0.005c-0.017-0.081-0.027-0.175-0.027-0.27 0-0.003 0-0.006 0-0.009v0-0.171q0-0.162 0.029-0.288c0.018-0.081 0.050-0.152 0.093-0.215l-0.001 0.002c0.038-0.055 0.088-0.1 0.146-0.13l0.002-0.001c0.058-0.028 0.126-0.045 0.197-0.045 0.004 0 0.009 0 0.013 0h-0.001q0.146 0 0.237 0.050 0.090 0.049 0.137 0.143 0.047 0.093 0.061 0.224h0.349c-0.012-0.135-0.053-0.257-0.116-0.365l0.002 0.004c-0.062-0.105-0.15-0.189-0.256-0.245l-0.003-0.002c-0.111-0.057-0.243-0.090-0.383-0.090-0.010 0-0.019 0-0.028 0l0.001-0q-0.191 0-0.345 0.067-0.153 0.066-0.261 0.194c-0.073 0.085-0.13 0.186-0.166 0.296l-0.002 0.006q-0.057 0.177-0.057 0.396v0.169q0 0.219 0.056 0.396 0.057 0.177 0.165 0.303 0.107 0.124 0.258 0.193 0.151 0.067 0.339 0.067 0.246 0 0.417-0.089t0.266-0.245q0.095-0.157 0.111-0.355zM33.442 29.851v-0.111q0-0.23-0.061-0.411c-0.039-0.12-0.097-0.224-0.173-0.313l0.001 0.001c-0.072-0.083-0.161-0.15-0.262-0.195l-0.005-0.002q-0.154-0.069-0.343-0.069-0.187 0-0.342 0.069-0.154 0.067-0.267 0.197-0.111 0.129-0.173 0.311c-0.039 0.116-0.062 0.25-0.062 0.39 0 0.008 0 0.015 0 0.023l-0-0.001v0.111q0 0.23 0.062 0.413c0.040 0.12 0.1 0.223 0.176 0.312l-0.001-0.001q0.113 0.129 0.266 0.197 0.155 0.067 0.342 0.067 0.189 0 0.343-0.067 0.155-0.069 0.265-0.197 0.111-0.128 0.171-0.311c0.038-0.117 0.060-0.253 0.060-0.393 0-0.007-0-0.014-0-0.021v0.001zM33.093 29.737v0.114q0 0.171-0.034 0.302c-0.020 0.084-0.053 0.158-0.096 0.224l0.002-0.003c-0.039 0.057-0.090 0.103-0.151 0.134l-0.002 0.001c-0.058 0.028-0.126 0.045-0.197 0.045-0.004 0-0.008-0-0.011-0h0.001c-0.003 0-0.006 0-0.010 0-0.072 0-0.139-0.016-0.2-0.046l0.003 0.001c-0.063-0.034-0.115-0.079-0.155-0.134l-0.001-0.001c-0.043-0.063-0.077-0.137-0.097-0.217l-0.001-0.005c-0.022-0.085-0.034-0.183-0.034-0.283 0-0.007 0-0.013 0-0.020v0.001-0.114q0-0.17 0.034-0.3t0.096-0.219c0.039-0.057 0.092-0.102 0.153-0.133l0.002-0.001c0.059-0.029 0.128-0.046 0.201-0.046 0.002 0 0.004 0 0.007 0h-0q0.115 0 0.208 0.046 0.091 0.045 0.154 0.134 0.065 0.087 0.097 0.219 0.034 0.13 0.034 0.3z">
            </path>
        </symbol>
        <symbol id="icon-Logo2" viewBox="0 0 59 32">
            <path
                d="M28.637 3.391h-0.078q-0.18-0.010-0.36-0.013h-0.26c-0.227 0-0.458 0.006-0.688 0.017-0.008-0-0.017-0.001-0.026-0.001s-0.018 0-0.027 0.001l0.001-0c-2.206 0.129-4.255 0.681-6.106 1.575l0.097-0.042-0.247 0.119v12.653l0.578-0.197c0.507-0.174 1.048-0.331 1.607-0.477 1.382-0.37 2.973-0.593 4.613-0.614l0.013-0v1.662c-0.217 0.001-0.43 0.007-0.641 0.019l0.033-0.001h-0.048c-1.299 0.073-2.516 0.268-3.688 0.575l0.129-0.029c-1.61 0.409-3.021 0.975-4.333 1.7l0.093-0.047v-16.227c1.281-0.761 2.762-1.382 4.331-1.784l0.118-0.026c1.256-0.338 2.7-0.535 4.188-0.541h0.248c0.292 0.007 0.577 0.021 0.845 0.041 0.705 0.050 1.403 0.161 2.089 0.333v1.636c-0.583-0.143-1.274-0.251-1.981-0.303l-0.042-0.002-0.042-0.003c-0.141-0.012-0.282-0.024-0.414-0.024zM31.516 5.063c0.363 0.028 0.739 0.041 1.119 0.041 1.569-0.006 3.086-0.212 4.533-0.594l-0.125 0.028c1.61-0.411 3.020-0.977 4.331-1.701l-0.094 0.047v15.937c-1.281 0.761-2.762 1.381-4.331 1.783l-0.118 0.026c-1.256 0.336-2.7 0.533-4.188 0.539h-0.004c-0.031 0-0.067 0-0.103 0-1.092 0-2.153-0.137-3.165-0.394l0.089 0.019v-16.041q0.369 0.087 0.756 0.153c0.422 0.071 0.867 0.123 1.301 0.155zM39.627 5.187l-0.578 0.194c-0.352 0.129-0.888 0.294-1.431 0.441l-0.176 0.041c-1.44 0.385-3.094 0.609-4.8 0.616h-0.004c-0.377 0-0.724-0.010-1.059-0.032l-0.461-0.030v13.015l0.396 0.034c0.367 0.033 0.746 0.049 1.127 0.049 1.347-0.007 2.649-0.185 3.891-0.514l-0.108 0.024c1.134-0.288 2.118-0.652 3.051-1.104l-0.095 0.041 0.247-0.119z">
            </path>
            <path
                d="M20.421 25.835c-0.156-0.161-0.374-0.26-0.615-0.26-0.010 0-0.020 0-0.029 0l0.001-0c-0.003-0-0.006-0-0.010-0-0.13 0-0.254 0.026-0.368 0.072l0.006-0.002c-0.22 0.088-0.39 0.26-0.474 0.475l-0.002 0.006c-0.046 0.114-0.068 0.236-0.066 0.359v2.168c-0.006 0.153 0.024 0.305 0.085 0.445 0.051 0.111 0.125 0.21 0.217 0.291 0.086 0.073 0.188 0.126 0.297 0.154q0.159 0.044 0.324 0.045c0.121 0.001 0.24-0.025 0.35-0.075 0.325-0.145 0.548-0.465 0.549-0.837v-0.242h-0.567v0.193c0 0.003 0 0.007 0 0.011 0 0.065-0.012 0.128-0.034 0.185l0.001-0.003c-0.019 0.048-0.047 0.089-0.082 0.122l-0 0c-0.065 0.050-0.147 0.081-0.237 0.083h-0c-0.010 0.001-0.022 0.002-0.034 0.002-0.095 0-0.179-0.046-0.231-0.118l-0.001-0.001c-0.048-0.076-0.076-0.169-0.076-0.269 0-0.008 0-0.015 0-0.023l-0 0.001v-2.022c-0.003-0.112 0.021-0.223 0.070-0.324 0.053-0.080 0.142-0.133 0.244-0.133 0.012 0 0.023 0.001 0.034 0.002l-0.001-0c0.003-0 0.006-0 0.010-0 0.099 0 0.187 0.048 0.243 0.122l0.001 0.001c0.059 0.076 0.094 0.173 0.094 0.278 0 0.005-0 0.009-0 0.014l0-0.001v0.187h0.561v-0.221c0-0.003 0-0.006 0-0.009 0-0.133-0.025-0.261-0.072-0.378l0.002 0.007c-0.045-0.118-0.109-0.22-0.19-0.306l0 0zM23.788 25.811c-0.173-0.147-0.398-0.237-0.644-0.239h-0c-0.115 0-0.23 0.021-0.338 0.061-0.234 0.084-0.418 0.256-0.517 0.475l-0.002 0.006c-0.057 0.132-0.086 0.275-0.083 0.42v2.079c-0.004 0.146 0.025 0.291 0.083 0.426 0.051 0.112 0.126 0.211 0.219 0.291 0.087 0.080 0.189 0.143 0.299 0.183 0.109 0.040 0.223 0.061 0.338 0.061 0 0 0 0 0.001 0 0.247 0 0.473-0.093 0.645-0.245l-0.001 0.001c0.090-0.081 0.163-0.18 0.214-0.291 0.058-0.134 0.086-0.279 0.083-0.426v-2.079c0-0.004 0-0.010 0-0.015 0-0.146-0.031-0.285-0.086-0.411l0.003 0.007c-0.052-0.119-0.124-0.22-0.213-0.304l-0-0zM23.523 28.614c0.001 0.009 0.001 0.020 0.001 0.031 0 0.106-0.044 0.201-0.114 0.27l-0 0c-0.072 0.060-0.165 0.097-0.267 0.097s-0.195-0.036-0.267-0.097l0.001 0.001c-0.070-0.068-0.114-0.163-0.114-0.268 0-0.012 0.001-0.023 0.002-0.035l-0 0.001v-2.079c-0.001-0.010-0.001-0.021-0.001-0.033 0-0.105 0.044-0.2 0.114-0.268l0-0c0.072-0.060 0.165-0.097 0.267-0.097s0.195 0.037 0.267 0.098l-0.001-0c0.070 0.068 0.114 0.163 0.114 0.268 0 0.012-0.001 0.023-0.002 0.034l0-0.001zM28.21 29.543v-3.937h-0.545l-0.716 2.084h-0.010l-0.722-2.083h-0.539v3.936h0.562v-2.394h0.010l0.55 1.693h0.281l0.555-1.693h0.010v2.394h0.562zM31.405 25.882c-0.086-0.097-0.196-0.171-0.318-0.215-0.116-0.039-0.249-0.061-0.388-0.061-0.007 0-0.014 0-0.021 0h-0.834v3.937h0.561v-1.538h0.289c0.014 0.001 0.030 0.001 0.047 0.001 0.168 0 0.326-0.040 0.466-0.111l-0.006 0.003c0.129-0.072 0.233-0.175 0.306-0.297l0.002-0.004c0.065-0.105 0.109-0.221 0.129-0.343 0.019-0.125 0.030-0.269 0.030-0.416 0-0.011-0-0.022-0-0.033v0.002c0.006-0.189-0.013-0.378-0.055-0.562-0.040-0.142-0.111-0.263-0.207-0.362l0 0zM31.115 27.082c-0.003 0.075-0.022 0.145-0.053 0.208l0.001-0.003c-0.032 0.060-0.082 0.108-0.143 0.137l-0.002 0.001c-0.069 0.032-0.15 0.050-0.235 0.050-0.010 0-0.021-0-0.031-0.001l0.001 0h-0.256v-1.338h0.289c0.008-0 0.018-0.001 0.027-0.001 0.082 0 0.16 0.018 0.229 0.051l-0.003-0.001c0.058 0.034 0.103 0.084 0.131 0.143l0.001 0.002c0.029 0.064 0.047 0.14 0.049 0.219v0.262c0 0.091 0.006 0.186 0 0.27zM34.062 25.606h-0.46l-0.867 3.937h0.561l0.165-0.846h0.765l0.165 0.846h0.561zM33.544 28.161l0.276-1.427h0.010l0.274 1.427zM37.686 27.977h-0.010l-0.847-2.371h-0.539v3.937h0.561v-2.367h0.011l0.857 2.367h0.528v-3.936h-0.561zM41.113 25.606l-0.451 1.566h-0.011l-0.451-1.566h-0.593l0.77 2.273v1.663h0.561v-1.663l0.77-2.273zM18.857 30.654h0.27v0.758h0.183v-0.759h0.269v-0.155h-0.722zM21.13 30.498l-0.354 0.914h0.195l0.075-0.208h0.365l0.078 0.208h0.2l-0.363-0.914zM21.101 31.051l0.124-0.339 0.124 0.339h-0.249zM23.376 31.075h0.211v0.118c-0.059 0.048-0.134 0.077-0.217 0.077-0 0-0 0-0 0h0c-0.004 0-0.009 0-0.014 0-0.073 0-0.138-0.034-0.18-0.087l-0-0c-0.043-0.061-0.068-0.136-0.068-0.218 0-0.007 0-0.014 0.001-0.021l-0 0.001q0-0.305 0.263-0.305c0.006-0.001 0.012-0.001 0.018-0.001 0.090 0 0.166 0.062 0.188 0.145l0 0.001 0.181-0.035q-0.058-0.268-0.387-0.269c-0.004-0-0.008-0-0.013-0-0.118 0-0.226 0.045-0.307 0.118l0-0c-0.082 0.081-0.133 0.193-0.133 0.317 0 0.012 0 0.024 0.001 0.036l-0-0.002c-0 0.006-0 0.014-0 0.022 0 0.123 0.044 0.235 0.118 0.322l-0.001-0.001c0.081 0.083 0.194 0.135 0.32 0.135 0.010 0 0.019-0 0.028-0.001l-0.001 0c0.004 0 0.010 0 0.015 0 0.144 0 0.275-0.055 0.373-0.146l-0 0v-0.36h-0.396v0.154zM25.67 30.498h-0.185v0.914h0.64v-0.155h-0.455zM27.61 30.498h-0.185v0.914h0.185zM29.506 31.109l-0.374-0.61h-0.179v0.914h0.171v-0.597l0.367 0.597h0.184v-0.914h-0.17v0.611zM31.221 31.010h0.455v-0.155h-0.455v-0.2h0.49v-0.156h-0.675v0.914h0.694v-0.155h-0.509zM35.378 30.859h-0.36v-0.36h-0.183v0.914h0.183v-0.4h0.36v0.4h0.184v-0.914h-0.184zM37.103 31.010h0.457v-0.155h-0.457v-0.2h0.491v-0.156h-0.674v0.914h0.693v-0.155h-0.509v-0.247zM39.442 31.010q0.24-0.037 0.24-0.254c0.001-0.008 0.002-0.017 0.002-0.026 0-0.073-0.036-0.137-0.091-0.177l-0.001-0c-0.067-0.035-0.147-0.055-0.231-0.055-0.013 0-0.025 0-0.038 0.001l0.002-0h-0.387v0.914h0.184v-0.382h0.036c0.005-0 0.012-0.001 0.018-0.001 0.035 0 0.068 0.008 0.098 0.022l-0.001-0.001c0.027 0.017 0.049 0.039 0.065 0.066l0.001 0.001 0.199 0.29h0.219l-0.111-0.178c-0.050-0.089-0.118-0.163-0.2-0.218l-0.002-0.001zM39.257 30.883h-0.135v-0.229h0.145c0.012-0.001 0.027-0.002 0.041-0.002 0.052 0 0.102 0.009 0.148 0.025l-0.003-0.001c0.025 0.022 0.040 0.054 0.040 0.089 0 0.039-0.019 0.074-0.048 0.096l-0 0c-0.045 0.015-0.098 0.023-0.152 0.023-0.012 0-0.025-0-0.037-0.001l0.002 0zM41.206 31.010h0.455v-0.155h-0.455v-0.2h0.491v-0.156h-0.677v0.914h0.694v-0.155h-0.509z">
            </path>
        </symbol>
        <symbol id="icon-Logo3" viewBox="0 0 59 32">
            <path
                d="M21.034 28.127q0.014 0 0.026 0.006c0.009 0.003 0.017 0.007 0.023 0.013l-0-0 0.126 0.119c-0.098 0.096-0.216 0.172-0.347 0.223l-0.007 0.002c-0.16 0.057-0.331 0.085-0.503 0.081-0.007 0-0.016 0-0.025 0-0.161 0-0.315-0.028-0.459-0.079l0.010 0.003c-0.138-0.049-0.256-0.121-0.357-0.213l0.001 0.001c-0.097-0.091-0.175-0.2-0.228-0.323l-0.002-0.006c-0.051-0.121-0.081-0.263-0.081-0.411 0-0.004 0-0.008 0-0.012v0.001c-0-0.003-0-0.006-0-0.010 0-0.15 0.032-0.292 0.090-0.42l-0.003 0.006c0.055-0.122 0.138-0.234 0.245-0.329 0.107-0.092 0.233-0.165 0.37-0.212l0.008-0.002c0.14-0.048 0.3-0.076 0.468-0.076 0.007 0 0.014 0 0.021 0h-0.001c0.154-0.003 0.309 0.021 0.453 0.069 0.125 0.047 0.24 0.111 0.339 0.19l-0.106 0.127c-0.008 0.009-0.017 0.016-0.026 0.023l-0 0c-0.011 0.006-0.023 0.010-0.037 0.010-0.002 0-0.004-0-0.006-0l0 0c-0.017-0.001-0.032-0.006-0.046-0.014l0.001 0-0.057-0.034-0.078-0.043c-0.072-0.035-0.156-0.061-0.244-0.075l-0.005-0.001c-0.052-0.008-0.112-0.013-0.173-0.013-0.005 0-0.010 0-0.015 0h0.001c-0.004-0-0.009-0-0.014-0-0.121 0-0.236 0.021-0.344 0.059l0.007-0.002c-0.106 0.036-0.197 0.091-0.275 0.16l0.001-0.001c-0.079 0.074-0.139 0.16-0.178 0.254-0.041 0.096-0.065 0.209-0.065 0.326 0 0.003 0 0.006 0 0.008v-0c-0 0.004-0 0.008-0 0.013 0 0.118 0.024 0.23 0.067 0.332l-0.002-0.006c0.081 0.193 0.238 0.34 0.432 0.407l0.005 0.002c0.103 0.037 0.213 0.055 0.325 0.054q0.097 0.001 0.193-0.011c0.16-0.016 0.303-0.079 0.418-0.175l-0.001 0.001c0.016-0.013 0.037-0.021 0.060-0.022h0zM24.678 27.531c0.002 0.143-0.027 0.286-0.085 0.419-0.057 0.129-0.137 0.237-0.237 0.325l-0.001 0.001c-0.105 0.093-0.232 0.166-0.373 0.213-0.143 0.048-0.308 0.076-0.479 0.076s-0.336-0.028-0.49-0.079l0.011 0.003c-0.143-0.049-0.267-0.122-0.373-0.215l0.001 0.001c-0.1-0.090-0.181-0.199-0.237-0.322l-0.002-0.006c-0.054-0.124-0.085-0.268-0.085-0.42s0.031-0.296 0.088-0.427l-0.003 0.007c0.054-0.122 0.135-0.234 0.24-0.33 0.104-0.089 0.228-0.159 0.363-0.204l0.008-0.002c0.309-0.103 0.65-0.103 0.959 0 0.14 0.049 0.267 0.121 0.372 0.214 0.199 0.178 0.324 0.435 0.324 0.721 0 0.009-0 0.017-0 0.026l0-0.001zM24.346 27.531c0.003-0.114-0.017-0.229-0.059-0.337-0.077-0.196-0.234-0.345-0.431-0.409l-0.005-0.001c-0.104-0.035-0.224-0.055-0.349-0.055s-0.244 0.020-0.357 0.058l0.008-0.002c-0.104 0.036-0.193 0.090-0.267 0.16l0-0c-0.073 0.069-0.131 0.153-0.169 0.247l-0.002 0.005c-0.038 0.1-0.060 0.216-0.060 0.337s0.022 0.237 0.063 0.344l-0.002-0.007c0.035 0.093 0.094 0.179 0.17 0.252 0.074 0.069 0.166 0.123 0.267 0.158 0.225 0.072 0.472 0.072 0.697 0 0.101-0.035 0.193-0.089 0.266-0.158 0.076-0.073 0.133-0.159 0.169-0.252 0.038-0.093 0.060-0.201 0.060-0.314 0-0.008-0-0.016-0-0.024l0 0.001zM27.163 27.885l0.033 0.075q0.019-0.040 0.037-0.075c0.013-0.029 0.027-0.053 0.042-0.076l-0.001 0.002 0.806-1.251q0.023-0.033 0.046-0.040c0.016-0.004 0.035-0.007 0.055-0.007 0.004 0 0.008 0 0.012 0l-0.001-0h0.238v2.036h-0.282v-1.56c-0.001-0.011-0.001-0.023-0.001-0.035s0-0.025 0.001-0.037l-0 0.002-0.811 1.269c-0.011 0.020-0.027 0.036-0.047 0.046l-0.001 0c-0.020 0.011-0.043 0.017-0.068 0.017-0 0-0.001 0-0.001 0h-0.046c-0.001 0-0.001 0-0.002 0-0.025 0-0.048-0.006-0.069-0.018l0.001 0c-0.020-0.011-0.036-0.026-0.047-0.045l-0-0.001-0.834-1.278v1.634h-0.273v-2.032h0.238c0.003-0 0.006-0 0.009-0 0.020 0 0.039 0.003 0.058 0.007l-0.002-0c0.019 0.008 0.034 0.021 0.044 0.038l0 0 0.823 1.253q0.025 0.035 0.041 0.073zM30.197 27.784v0.762h-0.315v-2.033h0.703c0.133-0.002 0.266 0.013 0.393 0.045 0.102 0.025 0.197 0.067 0.278 0.126 0.068 0.052 0.121 0.119 0.156 0.197l0.001 0.003q0.056 0.126 0.054 0.26c0 0.003 0 0.006 0 0.009 0 0.185-0.089 0.35-0.227 0.453l-0.001 0.001c-0.079 0.060-0.173 0.107-0.274 0.134l-0.006 0.001c-0.107 0.030-0.229 0.047-0.356 0.047-0.008 0-0.016-0-0.024-0l0.001 0zM30.197 27.566h0.382q0.126 0.001 0.245-0.031c0.067-0.020 0.126-0.050 0.178-0.089l-0.002 0.001c0.089-0.071 0.145-0.179 0.145-0.3 0-0.002 0-0.004-0-0.006v0c0-0.006 0.001-0.013 0.001-0.020 0-0.053-0.012-0.103-0.033-0.148l0.001 0.002c-0.027-0.055-0.064-0.102-0.11-0.138l-0.001-0.001c-0.105-0.070-0.235-0.111-0.374-0.111-0.018 0-0.035 0.001-0.052 0.002l0.002-0h-0.382zM34.437 28.549h-0.249c-0.002 0-0.004 0-0.006 0-0.023 0-0.045-0.007-0.064-0.019l0 0c-0.018-0.012-0.032-0.027-0.041-0.046l-0-0.001-0.214-0.492h-1.078l-0.222 0.491c-0.009 0.019-0.023 0.034-0.039 0.045l-0 0c-0.018 0.013-0.041 0.021-0.066 0.021-0.002 0-0.004-0-0.006-0h-0.249l0.946-2.036h0.328zM32.875 27.793h0.89l-0.375-0.829c-0.025-0.053-0.050-0.116-0.069-0.182l-0.002-0.009-0.036 0.106q-0.017 0.049-0.034 0.086zM35.8 26.522c0.019 0.009 0.034 0.021 0.047 0.036l0 0 1.381 1.535v-1.581h0.282v2.036h-0.158c-0.001 0-0.002 0-0.004 0-0.022 0-0.043-0.004-0.063-0.012l0.001 0c-0.020-0.010-0.036-0.023-0.050-0.038l-0-0-1.378-1.534c0.001 0.011 0.001 0.023 0.001 0.035s-0 0.025-0.001 0.037l0-0.002v1.513h-0.282v-2.036h0.167c0.001 0 0.001 0 0.002 0 0.020 0 0.039 0.003 0.056 0.010l-0.001-0zM39.834 27.739v0.809h-0.315v-0.809l-0.872-1.226h0.282c0.002-0 0.005-0 0.007-0 0.022 0 0.043 0.006 0.061 0.018l-0-0c0.017 0.013 0.031 0.028 0.042 0.045l0 0.001 0.546 0.791c0.037 0.052 0.070 0.112 0.094 0.175l0.002 0.005 0.041-0.087q0.023-0.048 0.054-0.093l0.538-0.797c0.012-0.016 0.026-0.031 0.041-0.043l0-0c0.018-0.013 0.041-0.020 0.065-0.020 0.001 0 0.002 0 0.004 0h0.286zM27.007 23.095q0.206 0.022 0.417 0.038c2.129-0.813 3.929-2.145 5.177-3.828s1.887-3.642 1.838-5.634l-2.345-2.004c0.477 2.121 0.254 4.313-0.645 6.331-0.898 2.018-2.436 3.783-4.441 5.097z">
            </path>
            <path
                d="M26.17 23.002l0.063 0.011c2.143-1.31 3.777-3.138 4.69-5.25s1.065-4.408 0.433-6.594l-3.341-2.854c1.351 2.346 1.895 4.972 1.569 7.571s-1.511 5.067-3.414 7.115zM37.5 16.024c-0.567 2.189-1.946 4.162-3.931 5.629-0.541 0.405-1.152 0.785-1.796 1.112l-0.072 0.033c1.616-0.406 3.102-1.123 4.342-2.097s2.202-2.178 2.811-3.52z">
            </path>
            <path
                d="M36.969 15.702l-1.929-1.648c-0.037 1.879-0.662 3.715-1.811 5.318s-2.779 2.914-4.721 3.796h0.010q0.65 0 1.295-0.066c1.815-0.633 3.419-1.64 4.667-2.931s2.104-2.827 2.489-4.469zM26.449 7.112l-2.301-1.969c-2.057 0.679-3.827 1.873-5.077 3.426s-1.922 3.392-1.929 5.277c0.008 2.082 0.828 4.103 2.331 5.742s3.603 2.803 5.967 3.308c2.111-2.198 3.347-4.913 3.528-7.751s-0.702-5.651-2.52-8.032zM42.286 15.399c-0.009-2.47-1.161-4.838-3.206-6.585-2.044-1.747-4.815-2.731-7.706-2.739-0.007 0-0.015-0-0.023-0-1.389 0-2.725 0.227-3.972 0.647l0.088-0.026 14.091 12.039c0.459-0.98 0.727-2.127 0.729-3.337v-0.001z">
            </path>
        </symbol>
        <symbol id="icon-Logo4" viewBox="0 0 59 32">
            <path
                d="M13.759 12.296h-0.002c-1.363 0-2.469 0.997-2.469 2.225v0.002c0 1.229 1.106 2.225 2.469 2.225h0.002c1.363 0 2.469-0.996 2.469-2.225v-0.002c0-1.229-1.105-2.225-2.469-2.225zM31.978 11.585c-0.003-1.707-0.757-3.343-2.096-4.551-1.339-1.207-3.153-1.887-5.047-1.891-1.894 0.003-3.709 0.683-5.049 1.89s-2.094 2.844-2.097 4.551v9.414s14.287-1.434 14.289-9.412v-0.002zM6.286 24.088c0.003 1.188 0.528 2.326 1.459 3.166s2.194 1.314 3.511 1.317c1.317-0.003 2.579-0.477 3.511-1.317s1.456-1.977 1.46-3.166v-6.549s-9.942 0.998-9.942 6.548zM11.257 25.262c-0.257 0-0.509-0.069-0.723-0.198-0.209-0.124-0.374-0.304-0.476-0.52l-0.003-0.007c-0.063-0.132-0.099-0.286-0.099-0.449 0-0.081 0.009-0.16 0.026-0.236l-0.001 0.007c0.056-0.241 0.182-0.446 0.355-0.6l0.001-0.001c0.181-0.161 0.408-0.275 0.659-0.32l0.008-0.001c0.253-0.046 0.514-0.022 0.752 0.067s0.441 0.239 0.584 0.432c0.143 0.193 0.219 0.42 0.219 0.652 0.001 0.154-0.033 0.308-0.098 0.451s-0.161 0.273-0.282 0.382c-0.119 0.107-0.26 0.194-0.414 0.252l-0.009 0.003c-0.148 0.057-0.319 0.090-0.498 0.090-0 0-0.001 0-0.001 0h0z">
            </path>
            <path
                d="M20.348 23.151v2.438h-0.502v-2.438zM21.319 24.193v0.392h-1.109v-0.392zM21.436 23.151v0.393h-1.225v-0.393zM23.73 24.313v0.115q0 0.279-0.075 0.499c-0.048 0.146-0.12 0.271-0.214 0.378l0.001-0.001q-0.137 0.154-0.328 0.236c-0.119 0.052-0.257 0.082-0.402 0.082-0.006 0-0.013-0-0.019-0h0.001q-0.229 0-0.42-0.082c-0.129-0.057-0.238-0.136-0.327-0.235l-0.001-0.001c-0.093-0.106-0.167-0.231-0.214-0.369l-0.002-0.008c-0.048-0.142-0.076-0.306-0.076-0.477 0-0.008 0-0.015 0-0.023v0.001-0.115q0-0.279 0.075-0.499c0.048-0.145 0.12-0.271 0.214-0.378l-0.001 0.001q0.139-0.156 0.328-0.238c0.119-0.052 0.258-0.082 0.403-0.082 0.006 0 0.012 0 0.018 0h-0.001q0.231 0 0.42 0.082 0.191 0.082 0.328 0.238 0.139 0.155 0.214 0.377 0.077 0.219 0.077 0.498zM23.222 24.429v-0.119q0-0.194-0.035-0.341c-0.021-0.094-0.057-0.177-0.106-0.251l0.002 0.003c-0.043-0.063-0.099-0.114-0.165-0.15l-0.002-0.001c-0.063-0.032-0.137-0.052-0.216-0.052-0.003 0-0.007 0-0.010 0h0q-0.127 0-0.226 0.051c-0.068 0.037-0.123 0.088-0.165 0.149l-0.001 0.002c-0.047 0.071-0.082 0.154-0.101 0.243l-0.001 0.005c-0.022 0.096-0.035 0.207-0.035 0.321 0 0.007 0 0.014 0 0.022v-0.001 0.119q0 0.193 0.035 0.342 0.035 0.147 0.104 0.25 0.069 0.101 0.167 0.152t0.226 0.052 0.226-0.051c0.068-0.037 0.124-0.089 0.165-0.151l0.001-0.002q0.067-0.103 0.102-0.25c0.022-0.096 0.035-0.207 0.035-0.321 0-0.007-0-0.015-0-0.022v0.001zM25.36 24.951c0-0.001 0-0.001 0-0.002 0-0.041-0.007-0.081-0.021-0.118l0.001 0.002c-0.015-0.039-0.039-0.072-0.070-0.097l-0-0c-0.042-0.035-0.090-0.065-0.142-0.087l-0.004-0.001c-0.064-0.029-0.144-0.060-0.227-0.086l-0.016-0.004c-0.127-0.040-0.231-0.081-0.332-0.128l0.018 0.007c-0.1-0.045-0.185-0.097-0.264-0.158l0.003 0.002c-0.072-0.057-0.131-0.127-0.175-0.206l-0.002-0.003c-0.040-0.076-0.064-0.167-0.064-0.263 0-0.005 0-0.009 0-0.014v0.001c-0-0.002-0-0.005-0-0.008 0-0.098 0.025-0.191 0.068-0.271l-0.002 0.003q0.067-0.126 0.187-0.214 0.12-0.091 0.285-0.139c0.106-0.031 0.228-0.049 0.354-0.049 0.003 0 0.007 0 0.010 0h-0q0.269 0 0.47 0.097t0.311 0.266 0.112 0.387h-0.499c0-0.002 0-0.005 0-0.008 0-0.066-0.017-0.127-0.046-0.181l0.001 0.002c-0.031-0.056-0.077-0.1-0.132-0.128l-0.002-0.001c-0.061-0.030-0.132-0.047-0.207-0.047-0.006 0-0.012 0-0.018 0l0.001-0c-0.005-0-0.011-0-0.018-0-0.072 0-0.141 0.015-0.203 0.042l0.003-0.001c-0.054 0.022-0.099 0.058-0.131 0.105l-0.001 0.001c-0.027 0.040-0.043 0.089-0.043 0.142 0 0.002 0 0.004 0 0.005v-0q0 0.062 0.030 0.112c0.025 0.037 0.057 0.069 0.093 0.093l0.001 0.001q0.062 0.043 0.152 0.082t0.209 0.075q0.2 0.060 0.35 0.135 0.152 0.075 0.254 0.169t0.154 0.213 0.051 0.27c0 0.007 0.001 0.016 0.001 0.025 0 0.194-0.095 0.365-0.24 0.471l-0.002 0.001q-0.117 0.086-0.279 0.132c-0.105 0.029-0.226 0.046-0.351 0.046-0.004 0-0.009-0-0.013-0h0.001q-0.181 0-0.357-0.047c-0.122-0.034-0.228-0.083-0.324-0.148l0.004 0.002c-0.094-0.065-0.17-0.147-0.226-0.244l-0.002-0.004c-0.054-0.097-0.085-0.214-0.085-0.337 0-0.007 0-0.014 0-0.020l-0 0.001h0.504q0 0.114 0.035 0.193c0.022 0.051 0.056 0.094 0.098 0.126l0.001 0.001c0.044 0.033 0.095 0.057 0.152 0.070l0.003 0q0.090 0.022 0.197 0.022c0.007 0 0.015 0 0.023 0 0.069 0 0.135-0.014 0.195-0.038l-0.003 0.001c0.099-0.039 0.167-0.134 0.167-0.245 0-0.002-0-0.003-0-0.005v0zM27.294 23.151v2.438h-0.501v-2.438zM28.044 23.151v0.393h-1.989v-0.393zM29.966 25.197v0.392h-1.297v-0.392zM28.833 23.151v2.438h-0.503v-2.438zM29.797 24.144v0.382h-1.129v-0.382zM29.964 23.151v0.393h-1.296v-0.393zM30.259 23.151h0.909q0.28 0 0.481 0.083 0.203 0.084 0.311 0.248t0.109 0.403q0 0.196-0.067 0.337c-0.044 0.093-0.107 0.171-0.184 0.232l-0.001 0.001c-0.080 0.061-0.173 0.111-0.273 0.145l-0.007 0.002-0.159 0.084h-0.79l-0.003-0.392h0.587c0.005 0 0.011 0 0.017 0 0.074 0 0.143-0.017 0.205-0.048l-0.003 0.001c0.056-0.030 0.101-0.075 0.13-0.129l0.001-0.002c0.029-0.054 0.045-0.117 0.045-0.185 0-0.003-0-0.007-0-0.010v0c0-0.002 0-0.005 0-0.008 0-0.071-0.016-0.138-0.045-0.197l0.001 0.003c-0.029-0.057-0.075-0.102-0.131-0.13l-0.002-0.001c-0.061-0.029-0.132-0.046-0.207-0.046-0.005 0-0.011 0-0.016 0l0.001-0h-0.407v2.045h-0.502zM31.621 25.589l-0.555-1.087 0.53-0.003 0.563 1.067v0.023h-0.537zM34.258 24.721h-0.621v-0.392h0.621c0.006 0 0.012 0 0.019 0 0.078 0 0.152-0.017 0.218-0.049l-0.003 0.001c0.057-0.030 0.103-0.076 0.131-0.133l0.001-0.002c0.026-0.058 0.041-0.126 0.041-0.197s-0.015-0.139-0.043-0.201l0.001 0.003c-0.029-0.063-0.074-0.115-0.131-0.15l-0.001-0.001c-0.062-0.036-0.137-0.058-0.216-0.058-0.006 0-0.013 0-0.019 0l0.001-0h-0.447v2.045h-0.502v-2.438h0.949q0.286 0 0.491 0.104 0.206 0.102 0.314 0.283t0.109 0.413q0 0.237-0.109 0.409t-0.314 0.266-0.491 0.094zM37.154 25.197v0.392h-1.297v-0.392zM36.021 23.151v2.438h-0.503v-2.438zM36.985 24.144v0.382h-1.128v-0.382zM37.153 23.151v0.393h-1.295v-0.393zM38.571 23.151v2.438h-0.501v-2.438zM39.321 23.151v0.393h-1.989v-0.393zM41.242 25.197v0.392h-1.297v-0.392zM40.109 23.151v2.438h-0.502v-2.438zM41.073 24.144v0.382h-1.128v-0.382zM41.241 23.151v0.393h-1.295v-0.393zM41.535 23.151h0.909c0.009-0 0.019-0 0.030-0 0.162 0 0.317 0.031 0.46 0.087l-0.009-0.003q0.202 0.084 0.311 0.248t0.109 0.403q0 0.196-0.067 0.337c-0.044 0.093-0.107 0.171-0.184 0.232l-0.001 0.001c-0.080 0.061-0.173 0.111-0.273 0.145l-0.007 0.002-0.159 0.084h-0.79l-0.003-0.392h0.588c0.005 0 0.011 0 0.017 0 0.074 0 0.143-0.017 0.205-0.048l-0.003 0.001c0.056-0.030 0.101-0.075 0.13-0.129l0.001-0.002c0.029-0.054 0.046-0.118 0.046-0.186 0-0.003-0-0.006-0-0.009v0c0-0.002 0-0.004 0-0.006 0-0.071-0.016-0.138-0.045-0.198l0.001 0.003c-0.029-0.057-0.074-0.102-0.13-0.13l-0.002-0.001c-0.061-0.029-0.132-0.046-0.208-0.046-0.005 0-0.011 0-0.016 0l0.001-0h-0.407v2.045h-0.502zM42.898 25.589l-0.556-1.087 0.531-0.003 0.562 1.067v0.023h-0.537zM45.001 24.951c0-0 0-0 0-0 0-0.042-0.008-0.082-0.021-0.119l0.001 0.002c-0.015-0.039-0.039-0.072-0.070-0.097l-0-0c-0.042-0.035-0.090-0.065-0.142-0.087l-0.004-0.001c-0.063-0.029-0.144-0.060-0.226-0.086l-0.016-0.004c-0.127-0.040-0.231-0.081-0.333-0.128l0.018 0.007c-0.1-0.045-0.185-0.097-0.264-0.158l0.003 0.002c-0.072-0.057-0.131-0.127-0.175-0.206l-0.002-0.003c-0.040-0.076-0.064-0.167-0.064-0.263 0-0.005 0-0.009 0-0.014v0.001c-0-0.002-0-0.005-0-0.008 0-0.098 0.025-0.191 0.068-0.271l-0.002 0.003q0.067-0.126 0.187-0.214 0.12-0.091 0.285-0.139c0.106-0.031 0.228-0.049 0.354-0.049 0.003 0 0.007 0 0.010 0h-0.001q0.269 0 0.47 0.097t0.311 0.266q0.112 0.169 0.112 0.387h-0.499c0-0.002 0-0.005 0-0.008 0-0.066-0.017-0.127-0.046-0.181l0.001 0.002c-0.031-0.056-0.077-0.1-0.132-0.128l-0.002-0.001c-0.061-0.030-0.132-0.047-0.208-0.047-0.006 0-0.012 0-0.018 0l0.001-0c-0.005-0-0.011-0-0.018-0-0.072 0-0.141 0.015-0.203 0.042l0.003-0.001c-0.054 0.022-0.099 0.059-0.13 0.105l-0.001 0.001c-0.027 0.040-0.043 0.090-0.043 0.143 0 0.002 0 0.003 0 0.005v-0q0 0.062 0.030 0.112c0.025 0.037 0.057 0.069 0.093 0.093l0.001 0.001q0.062 0.043 0.152 0.082t0.209 0.075q0.2 0.060 0.35 0.135 0.152 0.075 0.254 0.169t0.154 0.213 0.051 0.27c0 0.007 0.001 0.016 0.001 0.025 0 0.194-0.095 0.365-0.24 0.471l-0.002 0.001q-0.117 0.086-0.279 0.132t-0.363 0.046q-0.181 0-0.357-0.047c-0.122-0.034-0.228-0.083-0.324-0.148l0.004 0.002c-0.094-0.065-0.171-0.147-0.226-0.244l-0.002-0.004c-0.054-0.097-0.085-0.214-0.085-0.337 0-0.007 0-0.014 0-0.020l-0 0.001h0.504q0 0.114 0.035 0.193c0.022 0.051 0.056 0.094 0.098 0.126l0.001 0.001c0.044 0.033 0.095 0.057 0.152 0.070l0.003 0q0.090 0.022 0.198 0.022c0.007 0 0.014 0 0.022 0 0.069 0 0.135-0.014 0.195-0.038l-0.003 0.001c0.099-0.039 0.167-0.134 0.167-0.245 0-0.002-0-0.003-0-0.005v0z">
            </path>
        </symbol>
        <symbol id="icon-Logo5" viewBox="0 0 59 32">
            <path
                d="M15.31 25.356c0.14 0.157 0.215 0.352 0.211 0.553 0.007 0.131-0.019 0.262-0.075 0.383s-0.143 0.229-0.252 0.315c-0.239 0.162-0.534 0.258-0.851 0.258-0.035 0-0.070-0.001-0.105-0.004l0.005 0h-1.671v-3.504h1.637c0.029-0.002 0.062-0.003 0.096-0.003 0.301 0 0.582 0.088 0.817 0.239l-0.006-0.004c0.105 0.080 0.189 0.181 0.245 0.294s0.080 0.238 0.073 0.362c0.010 0.193-0.058 0.383-0.19 0.535-0.129 0.138-0.3 0.236-0.492 0.273l-0.006 0.001c0.222 0.037 0.422 0.143 0.565 0.299zM13.349 24.827h0.7c0.015 0.001 0.033 0.002 0.052 0.002 0.146 0 0.282-0.044 0.396-0.119l-0.003 0.002c0.052-0.041 0.092-0.093 0.119-0.153l0.001-0.003c0.020-0.045 0.032-0.097 0.032-0.152 0-0.012-0.001-0.025-0.002-0.037l0 0.002c0.001-0.008 0.001-0.018 0.001-0.028 0-0.057-0.012-0.111-0.033-0.16l0.001 0.003c-0.027-0.062-0.067-0.115-0.116-0.156l-0.001-0c-0.113-0.075-0.252-0.12-0.401-0.12-0.020 0-0.040 0.001-0.060 0.002l0.003-0h-0.689v0.919zM14.562 26.171c0.054-0.043 0.098-0.096 0.128-0.158l0.001-0.003c0.024-0.050 0.037-0.108 0.037-0.169 0-0.009-0-0.019-0.001-0.028l0 0.001c0.001-0.008 0.001-0.016 0.001-0.025 0-0.063-0.014-0.122-0.040-0.175l0.001 0.002c-0.032-0.065-0.076-0.119-0.13-0.161l-0.001-0.001c-0.121-0.080-0.27-0.128-0.429-0.128-0.016 0-0.032 0-0.048 0.001l0.002-0h-0.734v0.964h0.743c0.167 0.009 0.333-0.034 0.47-0.122zM18.657 26.863l-0.911-1.37h-0.343v1.369h-0.783v-3.504h1.483c0.032-0.002 0.069-0.004 0.107-0.004 0.348 0 0.669 0.113 0.93 0.304l-0.004-0.003c0.207 0.19 0.333 0.441 0.353 0.707s-0.066 0.529-0.242 0.743c-0.183 0.189-0.433 0.315-0.707 0.357l0.97 1.4zM17.403 25.015h0.641q0.667 0 0.667-0.531c0.001-0.009 0.001-0.020 0.001-0.032 0-0.065-0.014-0.127-0.038-0.183l0.001 0.003c-0.030-0.071-0.073-0.132-0.127-0.181l-0-0c-0.122-0.090-0.275-0.144-0.44-0.144-0.022 0-0.045 0.001-0.067 0.003l0.003-0h-0.649zM22.939 26.157h-1.562l-0.276 0.705h-0.821l1.434-3.465h0.888l1.428 3.465h-0.822zM22.73 25.627l-0.571-1.479-0.57 1.479h1.141zM28.299 26.863h-0.777l-1.744-2.383v2.383h-0.776v-3.505h0.776l1.743 2.397v-2.397h0.778v3.504zM32.737 26.023c-0.169 0.271-0.409 0.483-0.694 0.614l-0.010 0.004c-0.338 0.154-0.714 0.23-1.093 0.221h-1.385v-3.504h1.385c0.018-0 0.040-0.001 0.061-0.001 0.373 0 0.728 0.080 1.048 0.223l-0.016-0.007c0.298 0.135 0.543 0.349 0.703 0.611 0.16 0.285 0.243 0.6 0.243 0.919-0.001 0.338-0.092 0.655-0.248 0.928l0.005-0.009zM31.847 25.94c0.211-0.216 0.341-0.511 0.344-0.836v-0c-0.003-0.326-0.133-0.62-0.344-0.836l0 0c-0.242-0.188-0.55-0.301-0.885-0.301-0.031 0-0.062 0.001-0.093 0.003l0.004-0h-0.54v2.269h0.54c0.027 0.002 0.058 0.003 0.089 0.003 0.334 0 0.642-0.113 0.888-0.303l-0.003 0.002zM23.426 3.867s10.038 3.411 9.825 8.349v8.351s-10.031-3.414-9.822-8.351zM42.194 18.611c1.895-1.175 4.089-1.903 6.378-2.116v-2.614c-2.638 0.915-4.875 2.574-6.378 4.73z">
            </path>
            <path
                d="M41.055 19.399c1.551-2.813 4.242-4.983 7.517-6.065v-7.533s-14.296 4.86-13.994 11.891v11.889s0.637-0.217 1.639-0.625c0-0.38 0-0.763 0.046-1.149 0.296-3.264 2.019-6.289 4.792-8.409z">
            </path>
            <path
                d="M39.695 23.815c0.084-0.899 0.261-1.726 0.523-2.513l-0.023 0.079c-1.727 1.831-2.772 4.103-2.99 6.497-0.021 0.226-0.032 0.451-0.038 0.685 1.198-0.515 2.102-0.952 2.987-1.418l-0.237 0.114c-0.171-0.73-0.269-1.568-0.269-2.429 0-0.357 0.017-0.71 0.050-1.059l-0.003 0.044zM40.263 23.858c-0.028 0.288-0.044 0.623-0.044 0.962 0 0.763 0.080 1.507 0.233 2.225l-0.012-0.070c3.906-2.104 8.294-5.354 8.125-9.283v-0.343c-2.79 0.282-5.401 1.38-7.431 3.126-0.448 0.989-0.757 2.136-0.868 3.341l-0.003 0.042z">
            </path>
        </symbol>
        <symbol id="icon-Logo6" viewBox="0 0 59 32">
            <path
                d="M30.589 15.682c-0.219-0.281-0.35-0.64-0.35-1.029 0-0.039 0.001-0.077 0.004-0.115l-0 0.005v-1.65q0-0.759 0.345-1.153t1.183-0.393q0.789 0 1.119 0.336c0.24 0.286 0.357 0.635 0.33 0.987v0.389h-0.939v-0.393q0.005-0.193-0.027-0.385c-0.016-0.093-0.064-0.172-0.133-0.228l-0.001-0.001c-0.084-0.056-0.188-0.090-0.3-0.090-0.014 0-0.029 0.001-0.043 0.002l0.002-0c-0.013-0.001-0.027-0.002-0.042-0.002-0.118 0-0.227 0.036-0.318 0.097l0.002-0.001c-0.077 0.062-0.133 0.149-0.155 0.248l-0.001 0.003c-0.024 0.112-0.037 0.242-0.037 0.374 0 0.012 0 0.024 0 0.036l-0-0.002v2.003c-0.002 0.022-0.003 0.048-0.003 0.074 0 0.179 0.046 0.347 0.126 0.494l-0.003-0.005c0.049 0.060 0.112 0.107 0.184 0.135l0.003 0.001c0.076 0.029 0.16 0.040 0.243 0.031 0.12 0.009 0.24-0.024 0.333-0.091 0.073-0.060 0.123-0.145 0.14-0.241l0-0.002c0.019-0.11 0.029-0.236 0.029-0.366 0-0.013-0-0.025-0-0.037l0 0.002v-0.406h0.94v0.371c0.002 0.029 0.003 0.063 0.003 0.097 0 0.357-0.124 0.685-0.331 0.943l0.002-0.003c-0.215 0.245-0.583 0.367-1.124 0.367s-0.949-0.131-1.181-0.403zM34.501 15.699q-0.356-0.385-0.356-1.127v-1.736q0-0.735 0.356-1.113t1.191-0.376q0.829 0 1.185 0.376 0.357 0.378 0.358 1.113v1.736q0 0.736-0.362 1.125-0.362 0.387-1.181 0.387c-0.547 0-0.951-0.131-1.191-0.386zM36.129 15.282c0.085-0.161 0.124-0.337 0.113-0.514v-2.126c0.001-0.017 0.002-0.036 0.002-0.056 0-0.164-0.042-0.318-0.115-0.452l0.002 0.005c-0.050-0.061-0.114-0.109-0.188-0.138l-0.003-0.001c-0.054-0.021-0.117-0.034-0.183-0.034-0.023 0-0.045 0.001-0.067 0.004l0.003-0c-0.019-0.003-0.041-0.004-0.064-0.004-0.066 0-0.13 0.013-0.188 0.036l0.004-0.001c-0.078 0.029-0.143 0.077-0.193 0.137l-0.001 0.001c-0.086 0.157-0.125 0.33-0.113 0.503v2.136c-0.012 0.177 0.027 0.353 0.113 0.514q0.083 0.081 0.198 0.127c0.072 0.029 0.155 0.046 0.241 0.046s0.17-0.017 0.246-0.047l-0.004 0.002c0.077-0.031 0.143-0.074 0.199-0.128l-0 0zM38.365 11.398h1.011l0.761 3.203 0.778-3.203h0.985l0.099 4.623h-0.728l-0.078-3.213-0.751 3.213h-0.583l-0.778-3.225-0.072 3.225h-0.735zM43.133 11.398h1.576q1.361 0 1.362 1.313 0 1.257-1.434 1.256h-0.537v2.055h-0.973zM44.479 13.374c0.096 0.010 0.194 0.003 0.286-0.023q0.14-0.038 0.249-0.123c0.090-0.122 0.145-0.275 0.145-0.44 0-0.029-0.002-0.057-0.005-0.085l0 0.003c0.001-0.016 0.001-0.036 0.001-0.055 0-0.13-0.017-0.255-0.050-0.375l0.002 0.010c-0.016-0.049-0.040-0.092-0.072-0.127l0 0c-0.034-0.038-0.075-0.069-0.121-0.092l-0.002-0.001c-0.114-0.047-0.246-0.075-0.385-0.075-0.017 0-0.034 0-0.051 0.001l0.002-0h-0.377v1.382h0.377zM47.474 11.398h1.045l1.072 4.623h-0.907l-0.211-1.066h-0.932l-0.218 1.066h-0.92zM48.367 14.419l-0.364-1.941-0.364 1.941h0.727zM50.456 11.398h0.681l1.303 2.637v-2.637h0.808v4.623h-0.648l-1.311-2.753v2.753h-0.834zM55.139 14.258l-1.083-2.854h0.913l0.661 1.833 0.621-1.833h0.893l-1.070 2.854v1.762h-0.934zM32.090 18.042v0.242h-0.794v1.878h-0.332v-1.878h-0.798v-0.242h1.924zM34.578 20.162h-0.257c-0.002 0-0.004 0-0.007 0-0.024 0-0.047-0.008-0.065-0.020l0 0c-0.019-0.012-0.033-0.028-0.043-0.048l-0-0.001-0.23-0.503h-1.101l-0.23 0.503c-0.007 0.022-0.019 0.042-0.034 0.057v0c-0.018 0.013-0.041 0.020-0.065 0.020-0.003 0-0.005-0-0.008-0l0 0h-0.257l0.973-2.12h0.338zM32.967 19.375h0.918l-0.389-0.863c-0.024-0.053-0.049-0.12-0.069-0.188l-0.003-0.012q-0.020 0.061-0.037 0.113l-0.035 0.089zM36.255 19.954q0.091 0.005 0.183 0c0.059-0.005 0.112-0.014 0.164-0.027l-0.008 0.002c0.056-0.012 0.102-0.025 0.148-0.041l-0.008 0.002q0.064-0.024 0.13-0.053v-0.477h-0.389c-0.002 0-0.005 0.001-0.008 0.001-0.008 0-0.015-0.001-0.021-0.004l0 0c-0.009-0.003-0.017-0.007-0.024-0.013l0 0c-0.006-0.005-0.011-0.010-0.015-0.017l-0-0c-0.003-0.006-0.004-0.014-0.005-0.022v-0.163h0.755v0.813c-0.118 0.074-0.255 0.133-0.4 0.171l-0.010 0.002c-0.069 0.018-0.151 0.034-0.236 0.043l-0.008 0.001c-0.084 0.009-0.181 0.014-0.28 0.014-0.002 0-0.003 0-0.005 0h0c-0.003 0-0.007 0-0.011 0-0.172 0-0.336-0.029-0.49-0.083l0.010 0.003c-0.15-0.052-0.279-0.127-0.391-0.223l0.002 0.001c-0.104-0.092-0.189-0.204-0.249-0.33l-0.003-0.006c-0.056-0.125-0.089-0.271-0.089-0.425 0-0.005 0-0.010 0-0.016v0.001c-0-0.005-0-0.010-0-0.016 0-0.154 0.032-0.301 0.090-0.434l-0.003 0.007c0.056-0.126 0.142-0.24 0.251-0.336 0.11-0.093 0.239-0.168 0.38-0.217l0.008-0.003c0.167-0.054 0.344-0.081 0.522-0.079q0.137 0 0.27 0.018 0.119 0.017 0.231 0.054 0.103 0.034 0.194 0.084 0.090 0.050 0.17 0.111l-0.093 0.131c-0.008 0.012-0.019 0.022-0.032 0.028l-0 0c-0.013 0.006-0.028 0.011-0.044 0.011h-0c-0 0-0 0-0 0-0.022 0-0.043-0.006-0.061-0.017l0 0c-0.039-0.018-0.070-0.035-0.1-0.053l0.005 0.003c-0.037-0.020-0.080-0.040-0.125-0.055l-0.006-0.002c-0.050-0.018-0.11-0.035-0.172-0.046l-0.007-0.001c-0.070-0.012-0.151-0.018-0.233-0.018-0.005 0-0.010 0-0.015 0h0.001c-0.004-0-0.009-0-0.013-0-0.13 0-0.254 0.022-0.37 0.061l0.008-0.002c-0.111 0.038-0.206 0.095-0.286 0.169l0.001-0.001c-0.081 0.076-0.143 0.166-0.182 0.263-0.041 0.105-0.065 0.227-0.065 0.354s0.024 0.249 0.068 0.36l-0.002-0.007c0.043 0.099 0.109 0.19 0.195 0.267 0.080 0.073 0.177 0.13 0.284 0.168 0.124 0.037 0.255 0.051 0.385 0.042zM39.357 19.921h1.063v0.242h-1.387v-2.12h0.333zM41.524 20.162h-0.333v-2.12h0.333zM42.761 18.052c0.020 0.010 0.037 0.023 0.051 0.039l0 0 1.422 1.598c-0.001-0.011-0.001-0.024-0.001-0.038s0-0.026 0.001-0.039l-0 0.002v-1.58h0.29v2.129h-0.167c-0.003 0-0.005 0-0.008 0-0.023 0-0.045-0.004-0.065-0.013l0.001 0c-0.021-0.010-0.038-0.024-0.052-0.040l-0-0-1.42-1.597v1.649h-0.278v-2.121h0.173q0.029 0 0.055 0.010zM46.974 18.042v0.233h-1.179v0.7h0.955v0.225h-0.955v0.723h1.179v0.233h-1.522v-2.115zM12.111 4.948l14.773 3.619v12.683l-14.773-3.617zM11.164 3.867v14.382l16.666 4.085v-14.38z">
            </path>
            <path d="M20.096 29.010l-16.667-4.088v-14.381l16.667 4.086z"></path>
            <path
                d="M11.44 4.785l14.58 3.574-6.2 5.352-14.582-3.576zM11.164 3.867l-7.735 6.674 16.667 4.086 7.734-6.674zM21.034 28.2l6.795-5.865-6.796-1.667v7.533z">
            </path>
        </symbol>

    </defs>
</svg>